<svg xmlns="http://www.w3.org/2000/svg" width="1600" height="900" viewBox="0 0 1600 900">
<defs><radialGradient id="bg" cx="30%" cy="20%" r="85%"><stop offset="0%" stop-color="#73ddff" stop-opacity=".45"/><stop offset="45%" stop-color="#7ea7ff" stop-opacity=".18"/><stop offset="100%" stop-color="#07101d"/></radialGradient><linearGradient id="orb"><stop stop-color="#fff"/><stop offset=".35" stop-color="#73ddff"/><stop offset="1" stop-color="#7ea7ff"/></linearGradient><filter id="g"><feGaussianBlur stdDeviation="14" result="b"/><feMerge><feMergeNode in="b"/><feMergeNode in="SourceGraphic"/></feMerge></filter></defs>
<rect width="1600" height="900" fill="url(#bg)"/><g opacity=".1"><path d="M0 0H1600" stroke="#fff"/><path d="M0 72H1600" stroke="#fff"/><path d="M0 144H1600" stroke="#fff"/><path d="M0 216H1600" stroke="#fff"/><path d="M0 288H1600" stroke="#fff"/><path d="M0 360H1600" stroke="#fff"/><path d="M0 432H1600" stroke="#fff"/><path d="M0 504H1600" stroke="#fff"/><path d="M0 576H1600" stroke="#fff"/><path d="M0 648H1600" stroke="#fff"/><path d="M0 720H1600" stroke="#fff"/><path d="M0 792H1600" stroke="#fff"/><path d="M0 864H1600" stroke="#fff"/><path d="M0 0V900" stroke="#fff"/><path d="M96 0V900" stroke="#fff"/><path d="M192 0V900" stroke="#fff"/><path d="M288 0V900" stroke="#fff"/><path d="M384 0V900" stroke="#fff"/><path d="M480 0V900" stroke="#fff"/><path d="M576 0V900" stroke="#fff"/><path d="M672 0V900" stroke="#fff"/><path d="M768 0V900" stroke="#fff"/><path d="M864 0V900" stroke="#fff"/><path d="M960 0V900" stroke="#fff"/><path d="M1056 0V900" stroke="#fff"/><path d="M1152 0V900" stroke="#fff"/><path d="M1248 0V900" stroke="#fff"/><path d="M1344 0V900" stroke="#fff"/><path d="M1440 0V900" stroke="#fff"/><path d="M1536 0V900" stroke="#fff"/><path d="M1632 0V900" stroke="#fff"/></g>
<g transform="translate(800 430)" filter="url(#g)"><ellipse rx="300" ry="175" fill="none" stroke="#fff" stroke-opacity=".2" stroke-width="2" transform="rotate(18)"/><ellipse rx="235" ry="280" fill="none" stroke="#fff" stroke-opacity=".13" stroke-width="2" transform="rotate(-24)"/><circle r="154" fill="url(#orb)"/><circle r="112" fill="#07101d" opacity=".5"/><text x="0" y="34" text-anchor="middle" font-size="98" fill="#fff">◇</text></g>
</svg>